<svg xmlns="http://www.w3.org/2000/svg" viewBox="0 0 400 260">
  <defs>
    <linearGradient id="estoqueBg" x1="0%" y1="0%" x2="100%" y2="100%">
      <stop offset="0%" stop-color="#131a2a"/>
      <stop offset="100%" stop-color="#1b2436"/>
    </linearGradient>
    <linearGradient id="estoqueBox" x1="0%" y1="0%" x2="100%" y2="100%">
      <stop offset="0%" stop-color="#4FD1C5"/>
      <stop offset="100%" stop-color="#818CF8"/>
    </linearGradient>
  </defs>
  <rect width="400" height="260" fill="url(#estoqueBg)"/>
  <!-- prateleiras -->
  <rect x="40" y="70" width="320" height="6" rx="3" fill="#2a3448"/>
  <rect x="40" y="150" width="320" height="6" rx="3" fill="#2a3448"/>
  <rect x="40" y="230" width="320" height="6" rx="3" fill="#2a3448"/>
  <!-- caixas linha 1 -->
  <g opacity="0.95">
    <rect x="55" y="30" width="46" height="40" rx="4" fill="url(#estoqueBox)"/>
    <rect x="112" y="20" width="46" height="50" rx="4" fill="#F5B942" opacity="0.85"/>
    <rect x="169" y="34" width="46" height="36" rx="4" fill="url(#estoqueBox)" opacity="0.7"/>
    <rect x="240" y="25" width="46" height="45" rx="4" fill="#818CF8" opacity="0.75"/>
    <rect x="300" y="34" width="46" height="36" rx="4" fill="#4FD1C5" opacity="0.55"/>
  </g>
  <!-- caixas linha 2 -->
  <g opacity="0.95">
    <rect x="70" y="105" width="46" height="45" rx="4" fill="#818CF8" opacity="0.8"/>
    <rect x="140" y="100" width="46" height="50" rx="4" fill="url(#estoqueBox)"/>
    <rect x="210" y="112" width="46" height="38" rx="4" fill="#F5B942" opacity="0.6"/>
    <rect x="280" y="102" width="46" height="48" rx="4" fill="url(#estoqueBox)" opacity="0.65"/>
  </g>
  <!-- caixas linha 3 -->
  <g opacity="0.95">
    <rect x="55" y="185" width="46" height="45" rx="4" fill="url(#estoqueBox)" opacity="0.6"/>
    <rect x="120" y="190" width="46" height="40" rx="4" fill="#4FD1C5" opacity="0.85"/>
    <rect x="190" y="182" width="46" height="48" rx="4" fill="#818CF8" opacity="0.7"/>
    <rect x="260" y="192" width="46" height="38" rx="4" fill="url(#estoqueBox)" opacity="0.5"/>
    <rect x="315" y="188" width="35" height="42" rx="4" fill="#F5B942" opacity="0.55"/>
  </g>
  <!-- código de barras flutuante -->
  <g transform="translate(280,20)">
    <rect x="0" y="0" width="70" height="28" rx="5" fill="#0B0F19" stroke="#4FD1C5" stroke-width="1.5"/>
    <rect x="8" y="8" width="2" height="12" fill="#4FD1C5"/>
    <rect x="13" y="8" width="1" height="12" fill="#4FD1C5"/>
    <rect x="17" y="8" width="3" height="12" fill="#4FD1C5"/>
    <rect x="23" y="8" width="1" height="12" fill="#4FD1C5"/>
    <rect x="27" y="8" width="2" height="12" fill="#4FD1C5"/>
    <rect x="32" y="8" width="1" height="12" fill="#4FD1C5"/>
    <rect x="36" y="8" width="3" height="12" fill="#4FD1C5"/>
    <rect x="42" y="8" width="1" height="12" fill="#4FD1C5"/>
    <rect x="46" y="8" width="2" height="12" fill="#4FD1C5"/>
    <rect x="51" y="8" width="1" height="12" fill="#4FD1C5"/>
    <rect x="55" y="8" width="3" height="12" fill="#4FD1C5"/>
    <rect x="61" y="8" width="2" height="12" fill="#4FD1C5"/>
  </g>
</svg>
