<svg xmlns="http://www.w3.org/2000/svg" viewBox="0 0 400 260">
  <defs>
    <linearGradient id="landBg" x1="0%" y1="0%" x2="100%" y2="100%">
      <stop offset="0%" stop-color="#131a2a"/>
      <stop offset="100%" stop-color="#1b2436"/>
    </linearGradient>
    <linearGradient id="landAccent" x1="0%" y1="0%" x2="100%" y2="0%">
      <stop offset="0%" stop-color="#4FD1C5"/>
      <stop offset="100%" stop-color="#818CF8"/>
    </linearGradient>
  </defs>
  <rect width="400" height="260" fill="url(#landBg)"/>
  <!-- navegador desktop -->
  <rect x="24" y="24" width="230" height="150" rx="10" fill="#0f1521" stroke="#2a3448"/>
  <rect x="24" y="24" width="230" height="20" rx="10" fill="#161e2e"/>
  <circle cx="36" cy="34" r="3" fill="#3a4560"/>
  <circle cx="46" cy="34" r="3" fill="#3a4560"/>
  <circle cx="56" cy="34" r="3" fill="#3a4560"/>
  <rect x="44" y="60" width="120" height="10" rx="3" fill="url(#landAccent)"/>
  <rect x="44" y="78" width="160" height="6" rx="3" fill="#2a3448"/>
  <rect x="44" y="90" width="140" height="6" rx="3" fill="#2a3448"/>
  <rect x="44" y="108" width="60" height="18" rx="9" fill="url(#landAccent)"/>
  <rect x="180" y="100" width="50" height="50" rx="8" fill="#1b2436" stroke="#4FD1C5" opacity="0.7"/>
  <!-- celular responsivo -->
  <rect x="270" y="60" width="100" height="170" rx="16" fill="#0f1521" stroke="#818CF8" stroke-width="1.5"/>
  <rect x="278" y="76" width="84" height="10" rx="3" fill="url(#landAccent)"/>
  <rect x="278" y="94" width="84" height="6" rx="3" fill="#2a3448"/>
  <rect x="278" y="104" width="60" height="6" rx="3" fill="#2a3448"/>
  <rect x="278" y="120" width="84" height="40" rx="6" fill="#1b2436"/>
  <rect x="278" y="168" width="84" height="16" rx="8" fill="url(#landAccent)"/>
  <rect x="278" y="192" width="84" height="16" rx="8" fill="#1b2436" stroke="#3a4560"/>
  <!-- linhas de conexao responsiva -->
  <line x1="254" y1="120" x2="270" y2="120" stroke="#4FD1C5" stroke-width="2" stroke-dasharray="4 3"/>
</svg>
